# xmcd
#
# Track frame offsets:
#	150
#	4607
#	24316
#	43950
#	64863
#	84358
#	106371
#	110326
#	126570
#	143928
#	165082
#	181510
#	201350
#
# Disc length: 2994 seconds
#
# Revision: 0
# Processed by: cddbd v1.5.2PL0 Copyright (c) Steve Scherf et al.
# Submitted via: EasyCDDAExtractor 12.0.0.1
#
DISCID=a50bb00d
DTITLE=정엽 - Thinkin' Back On Me
DYEAR=2008
DGENRE=R&B
TTITLE0=Open Your Eyes (Intro)
TTITLE1=Nothing Better (Guitar Ver.)
TTITLE2=그대라는 말
TTITLE3=You Are My Lady
TTITLE4=Baby I Love You
TTITLE5=끝이 없나봐 (Feat. 거미)
TTITLE6=Surgarduhoney (Interlude)
TTITLE7=Get You
TTITLE8=Saturday Night
TTITLE9=이제와
TTITLE10=First Time
TTITLE11=봄날
TTITLE12=Too Shy To Say (Dedicated To Stevie Wonder)
EXTD=
EXTT0=
EXTT1=
EXTT2=
EXTT3=
EXTT4=
EXTT5=
EXTT6=
EXTT7=
EXTT8=
EXTT9=
EXTT10=
EXTT11=
EXTT12=
PLAYORDER=
